<?xml version="1.0" encoding="utf-8"?>
<svg xmlns="http://www.w3.org/2000/svg" viewBox="0 0 32 32" fill="none">
  <!-- Full-bleed favicon: digit 0, edge-to-edge. Not a webcam. -->
  <rect width="32" height="32" fill="#0F766E"/>
  <path fill="#EEF0F2" fill-rule="evenodd" d="M9.6 2.8h12.8c3.75 0 6.5 2.9 6.5 6.7v12.9c0 3.8-2.75 6.7-6.5 6.7H9.6c-3.75 0-6.5-2.9-6.5-6.7V9.5c0-3.8 2.75-6.7 6.5-6.7zm2.15 4.85c-1.8 0-2.95 1.3-2.95 2.95v11.3c0 1.65 1.15 2.95 2.95 2.95h8.5c1.8 0 2.95-1.3 2.95-2.95v-11.3c0-1.65-1.15-2.95-2.95-2.95h-8.5z"/>
</svg>
